<svg width="47" height="47" viewBox="0 0 47 47" fill="none" xmlns="http://www.w3.org/2000/svg">
<path d="M23.5 5C18.4742 5 17.8467 5.02312 15.8734 5.111C13.9031 5.2035 12.5619 5.51337 11.3825 5.97125C10.1661 6.443 9.13321 7.07662 8.10492 8.10492C7.07662 9.13321 6.44146 10.1646 5.97125 11.3825C5.51337 12.5619 5.20196 13.9031 5.111 15.8734C5.0185 17.8467 5 18.4742 5 23.5C5 28.5258 5.02312 29.1533 5.111 31.1266C5.2035 33.0953 5.51337 34.4381 5.97125 35.6175C6.43574 36.8521 7.16388 37.9707 8.10492 38.8951C9.0288 39.8368 10.1475 40.565 11.3825 41.0288C12.5634 41.4851 13.9047 41.798 15.8734 41.889C17.8467 41.9815 18.4742 42 23.5 42C28.5258 42 29.1533 41.9769 31.1266 41.889C33.0953 41.7965 34.4381 41.4851 35.6175 41.0288C36.8519 40.5637 37.9703 39.8356 38.8951 38.8951C39.8371 37.9715 40.5654 36.8527 41.0288 35.6175C41.4851 34.4381 41.798 33.0953 41.889 31.1266C41.9815 29.1533 42 28.5258 42 23.5C42 18.4742 41.9769 17.8467 41.889 15.8734C41.7965 13.9047 41.4851 12.5603 41.0288 11.3825C40.564 10.148 39.8359 9.0295 38.8951 8.10492C37.9719 7.16241 36.853 6.43404 35.6175 5.97125C34.4381 5.51337 33.0953 5.20196 31.1266 5.111C29.1533 5.0185 28.5258 5 23.5 5ZM23.5 8.33C28.438 8.33 29.0269 8.35467 30.9771 8.43946C32.7808 8.52425 33.7598 8.82333 34.4104 9.07925C35.2768 9.41379 35.8904 9.81462 36.541 10.4606C37.1869 11.1081 37.5877 11.7232 37.9223 12.5896C38.1751 13.2402 38.4773 14.2192 38.559 16.0229C38.6469 17.9747 38.6669 18.5605 38.6669 23.5C38.6669 28.4395 38.6438 29.0269 38.5528 30.9771C38.4588 32.7808 38.1582 33.7598 37.9038 34.4104C37.6028 35.2132 37.1298 35.9404 36.5178 36.541C35.9199 37.1535 35.1932 37.6253 34.3903 37.9223C33.7428 38.1751 32.7485 38.4773 30.9447 38.559C28.9806 38.6469 28.4025 38.6669 23.4537 38.6669C18.5035 38.6669 17.9253 38.6438 15.9628 38.5528C14.1575 38.4588 13.1631 38.1582 12.5156 37.9038C11.7123 37.6066 10.9858 37.1329 10.3897 36.5178C9.77081 35.9239 9.29618 35.1961 9.00217 34.3903C8.74779 33.7428 8.44871 32.7485 8.35467 30.9447C8.28529 29.0022 8.26062 28.4025 8.26062 23.4769C8.26062 18.5497 8.28529 17.9485 8.35467 15.9828C8.44871 14.1791 8.74779 13.1862 9.00217 12.5387C9.32592 11.66 9.74062 11.0587 10.3897 10.4097C11.0356 9.76375 11.6384 9.3475 12.5156 9.02529C13.1631 8.76938 14.1359 8.46875 15.9397 8.37625C17.9053 8.30688 18.4834 8.28375 23.4306 8.28375L23.5 8.33V8.33ZM23.5 14.0002C22.2525 14.0002 21.0172 14.246 19.8646 14.7234C18.712 15.2008 17.6648 15.9005 16.7827 16.7827C15.9005 17.6648 15.2008 18.712 14.7234 19.8646C14.246 21.0172 14.0002 22.2525 14.0002 23.5C14.0002 24.7475 14.246 25.9828 14.7234 27.1354C15.2008 28.288 15.9005 29.3352 16.7827 30.2173C17.6648 31.0995 18.712 31.7992 19.8646 32.2766C21.0172 32.754 22.2525 32.9998 23.5 32.9998C26.0195 32.9998 28.4358 31.9989 30.2173 30.2173C31.9989 28.4358 32.9998 26.0195 32.9998 23.5C32.9998 20.9805 31.9989 18.5642 30.2173 16.7827C28.4358 15.0011 26.0195 14.0002 23.5 14.0002V14.0002ZM23.5 29.6667C20.0929 29.6667 17.3333 26.9071 17.3333 23.5C17.3333 20.0929 20.0929 17.3333 23.5 17.3333C26.9071 17.3333 29.6667 20.0929 29.6667 23.5C29.6667 26.9071 26.9071 29.6667 23.5 29.6667ZM35.5959 13.6256C35.5745 14.2001 35.3312 14.7439 34.9173 15.1427C34.5033 15.5416 33.9508 15.7644 33.3759 15.7644C32.8011 15.7644 32.2486 15.5416 31.8346 15.1427C31.4206 14.7439 31.1773 14.2001 31.1559 13.6256C31.1559 13.0368 31.3898 12.4722 31.8061 12.0558C32.2225 11.6395 32.7871 11.4056 33.3759 11.4056C33.9647 11.4056 34.5294 11.6395 34.9457 12.0558C35.362 12.4722 35.5959 13.0368 35.5959 13.6256V13.6256Z" fill="url(#paint0_linear_501_2434)"/>
<defs>
<linearGradient id="paint0_linear_501_2434" x1="23.5" y1="5" x2="23.5" y2="42" gradientUnits="userSpaceOnUse">
<stop stop-color="#D50946"/>
<stop offset="1" stop-color="#F39200"/>
</linearGradient>
</defs>
</svg>
