<svg width="401" height="91" viewBox="0 0 401 91" fill="none" xmlns="http://www.w3.org/2000/svg">
<path d="M1.12641 20.8818H0.926198C0.389449 20.8818 0 21.2989 0 21.8734V64.1903C0 64.7661 0.389449 65.1842 0.926198 65.1842H1.12641C1.52318 65.1842 1.98643 64.9239 1.98643 64.1903V21.8734C1.98643 21.1415 1.52302 20.8818 1.12641 20.8818Z" fill="white"/>
<path d="M47.254 20.8818H47.0538C46.6572 20.8818 46.1938 21.1415 46.1938 21.8734V61.8137L16.1338 21.7983C15.7206 21.2483 15.3296 20.8818 14.7642 20.8818H14.431C13.7566 20.8818 13.3032 21.3608 13.3032 22.0735V64.1902C13.3032 64.9238 13.7666 65.1841 14.1632 65.1841H14.3633C14.8113 65.1841 15.2898 64.923 15.2898 64.1902V23.9139L45.6723 64.3172C46.01 64.8572 46.2674 65.1842 46.92 65.1842H47.1203C47.7239 65.1842 48.1142 64.7686 48.1142 64.1252V21.8734C48.114 21.0107 47.5751 20.8818 47.254 20.8818Z" fill="white"/>
<path d="M85.7612 20.947H60.2252C59.2689 20.947 58.7634 21.4524 58.7634 22.4084V64.1899C58.7634 64.7657 59.1532 65.1838 59.6899 65.1838H59.89C60.2868 65.1838 60.75 64.9236 60.75 64.1899V44.7947H78.7429C79.4757 44.7947 79.7357 44.3308 79.7357 43.9338V43.8684C79.7357 43.3316 79.3182 42.942 78.7429 42.942H60.7502V22.7996H85.7612C86.4948 22.7996 86.7551 22.3369 86.7551 21.9406V21.808C86.7549 21.4107 86.4946 20.947 85.7612 20.947Z" fill="white"/>
<path d="M102.847 45.8637H106.353C111.365 45.8637 115.272 44.7581 117.964 42.578C120.633 40.4167 121.986 37.3197 121.986 33.3729C121.986 25.3603 116.339 20.9475 106.085 20.9475H94.7873C94.121 20.9475 93.3269 21.2011 93.3269 22.4089V64.1904C93.3269 64.7662 93.7163 65.1843 94.2531 65.1843H94.4533C94.8496 65.1843 95.3123 64.924 95.3123 64.1904V45.8637H100.156L120.335 64.5811C120.738 64.987 121.106 65.1843 121.46 65.1843C121.937 65.1843 122.295 64.8414 122.426 64.5229C122.539 64.2488 122.499 63.9786 122.307 63.7882L102.847 45.8637ZM95.3123 22.7999H106.085C115.145 22.7999 119.933 26.4561 119.933 33.3728C119.933 36.7522 118.806 39.388 116.583 41.2075C114.255 43.1125 110.791 44.0785 106.285 44.0785H95.3121V22.7999H95.3123Z" fill="white"/>
<path d="M146.088 21.6392C145.866 21.0767 145.454 20.8145 144.794 20.8145C144.188 20.8145 143.787 21.0839 143.567 21.6338L126 64.3441L126.027 64.4795C126.108 64.8887 126.537 65.2093 127.004 65.2093C127.245 65.2093 127.84 65.1127 128.17 64.2324L134.672 48.4708H154.981L161.425 64.2515C161.818 65.0935 162.419 65.1846 162.659 65.1846C163.132 65.1846 163.548 64.8816 163.628 64.4796L163.654 64.3441L146.088 21.6392ZM135.381 46.6181L144.794 23.6191L154.204 46.6181H135.381Z" fill="white"/>
<path d="M207.388 20.5742H207.188C206.74 20.5742 206.261 20.8353 206.261 21.5681V50.8493C206.261 55.106 205.424 58.3074 203.772 60.3641C202.117 62.4248 199.648 63.4266 196.224 63.4266C191.233 63.4266 187.301 60.933 185.962 56.9195L185.889 56.7005L185.67 56.6288C185.178 56.4681 184.468 56.9593 184.468 57.6676C184.468 59.0111 187.531 65.2792 196.224 65.2792C204.202 65.2792 208.248 60.446 208.248 50.9146V21.5681C208.248 20.8345 207.784 20.5742 207.388 20.5742Z" fill="white"/>
<path d="M357.525 44.2388H341.815C341.191 44.2388 340.755 44.5929 340.755 45.0997V45.1651C340.755 45.7208 341.181 46.0936 341.815 46.0936H357.067V47.7679C356.936 56.8413 349.931 63.4268 340.411 63.4268C329.384 63.4268 321.683 54.9552 321.683 42.8259C321.683 30.7739 329.644 22.0267 340.612 22.0267C349.383 22.0267 354.033 26.8951 355.349 31.0642L355.407 31.2486L355.58 31.3356C355.666 31.3786 355.764 31.4003 355.872 31.4003C356.304 31.4003 356.913 31.0459 356.913 30.2579C356.913 29.6717 355.988 27.2042 353.905 25.12C351.648 22.8637 347.511 20.1738 340.612 20.1738C334.63 20.1738 329.247 22.4857 325.455 26.6834C321.742 30.7949 319.696 36.5276 319.696 42.8257C319.696 49.1551 321.667 54.852 325.244 58.8664C328.983 63.0618 334.204 65.2792 340.344 65.2792C348.135 65.2792 354.41 61.407 357.066 55.1972V63.1496C357.066 63.753 357.066 64.8767 358.059 64.8767C358.574 64.8767 358.919 64.6389 358.919 64.2853V45.7005C358.919 44.7577 358.424 44.2388 357.525 44.2388Z" fill="white"/>
<path d="M383.155 21.331C382.931 20.7689 382.519 20.5071 381.86 20.5071C381.254 20.5071 380.853 20.7771 380.635 21.3267L363.118 63.9109L363.065 64.0399L363.093 64.1765C363.176 64.584 363.605 64.9033 364.071 64.9033C364.312 64.9033 364.908 64.8064 365.237 63.9255L371.738 48.1658H392.048L398.492 63.9443C398.885 64.7868 399.486 64.8776 399.726 64.8776C400.197 64.8776 400.613 64.5763 400.694 64.1765L400.722 64.0399L383.155 21.331ZM372.449 46.3131L381.86 23.3142L391.273 46.3131H372.449Z" fill="white"/>
<path d="M252.159 81.8579C248.114 83.1605 244.136 83.6969 240.227 83.4672C236.353 83.169 232.718 82.1925 229.323 80.5379C225.964 78.8147 223.049 76.5188 220.58 73.6502C218.094 70.7297 216.217 67.2985 214.947 63.3566C213.678 59.4147 213.21 55.5586 213.541 51.7882C213.856 47.966 214.884 44.4009 216.623 41.093C218.399 37.7165 220.781 34.803 223.77 32.3522C226.794 29.833 230.329 27.9221 234.374 26.6195C238.42 25.3169 242.38 24.8148 246.254 25.113C250.163 25.3427 253.789 26.2932 257.132 27.9646C260.476 29.6359 263.39 31.9318 265.876 34.8523C268.397 37.7042 270.3 41.127 271.586 45.1208C272.872 49.1145 273.332 53.0309 272.965 56.8698C272.633 60.6402 271.597 64.1793 269.857 67.4872C268.118 70.7951 265.736 73.7087 262.711 76.228C259.722 78.6787 256.205 80.5553 252.159 81.8579ZM250.982 78.2013C254.457 77.0824 257.481 75.4506 260.053 73.3057C262.625 71.1609 264.65 68.6486 266.127 65.7688C267.604 62.889 268.472 59.8048 268.729 56.5162C269.039 53.2108 268.643 49.8466 267.541 46.4233C266.422 42.9482 264.781 39.9847 262.617 37.5328C260.489 35.0124 257.985 33.0136 255.106 31.5366C252.226 30.0596 249.116 29.2005 245.775 28.9594C242.435 28.7184 239.027 29.1573 235.552 30.2761C232.077 31.395 229.053 33.0268 226.481 35.1716C223.908 37.3164 221.858 39.8371 220.329 42.7336C218.852 45.6134 217.958 48.706 217.649 52.0113C217.374 55.2481 217.796 58.604 218.915 62.0791C220.017 65.5023 221.633 68.4742 223.761 70.9946C225.941 73.4984 228.471 75.4888 231.35 76.9658C234.282 78.4262 237.418 79.2769 240.759 79.518C244.099 79.759 247.507 79.3201 250.982 78.2013Z" fill="url(#paint0_linear_463_2175)"/>
<path d="M294.108 68.3787C289.809 69.7627 285.583 70.3327 281.43 70.0886C277.313 69.7717 273.452 68.7343 269.845 66.9762C266.275 65.1453 263.178 62.7059 260.555 59.658C257.913 56.555 255.919 52.9094 254.57 48.7211C253.222 44.5328 252.724 40.4357 253.076 36.4297C253.411 32.3685 254.502 28.5807 256.351 25.066C258.237 21.4785 260.768 18.3828 263.944 15.779C267.157 13.1022 270.913 11.0719 275.211 9.68791C279.51 8.30395 283.717 7.7704 287.833 8.08729C291.987 8.33132 295.84 9.34124 299.392 11.117C302.944 12.8928 306.04 15.3322 308.682 18.4352C311.36 21.4654 313.383 25.1022 314.749 29.3455C316.115 33.5889 316.603 37.75 316.214 41.8289C315.861 45.8349 314.761 49.5953 312.912 53.1099C311.063 56.6245 308.532 59.7202 305.319 62.3969C302.143 65.0008 298.406 66.9947 294.108 68.3787ZM292.857 64.4935C296.549 63.3048 299.762 61.5709 302.495 59.2921C305.228 57.0132 307.379 54.3439 308.949 51.2841C310.518 48.2243 311.44 44.9473 311.713 41.4531C312.042 37.9412 311.621 34.3667 310.45 30.7295C309.262 27.0372 307.518 23.8885 305.219 21.2834C302.958 18.6054 300.298 16.4817 297.238 14.9123C294.178 13.343 290.874 12.4302 287.324 12.1741C283.775 11.918 280.154 12.3843 276.462 13.5731C272.77 14.7619 269.557 16.4957 266.824 18.7746C264.091 21.0534 261.912 23.7316 260.288 26.8091C258.718 29.8689 257.769 33.1548 257.44 36.6667C257.149 40.1058 257.597 43.6715 258.786 47.3637C259.957 51.0009 261.673 54.1585 263.934 56.8365C266.25 59.4968 268.938 61.6116 271.998 63.1809C275.113 64.7325 278.445 65.6364 281.994 65.8925C285.544 66.1487 289.165 65.6823 292.857 64.4935Z" fill="url(#paint1_linear_463_2175)"/>
<defs>
<linearGradient id="paint0_linear_463_2175" x1="255.126" y1="16.1547" x2="274.022" y2="74.8455" gradientUnits="userSpaceOnUse">
<stop stop-color="#D40946"/>
<stop offset="1" stop-color="#F39200"/>
</linearGradient>
<linearGradient id="paint1_linear_463_2175" x1="255.126" y1="16.1547" x2="274.022" y2="74.8455" gradientUnits="userSpaceOnUse">
<stop stop-color="#D40946"/>
<stop offset="1" stop-color="#F39200"/>
</linearGradient>
</defs>
</svg>
