<svg width="245" height="56" viewBox="0 0 245 56" fill="none" xmlns="http://www.w3.org/2000/svg">
<path d="M1.18587 12.7148H1.06396C0.737136 12.7148 0.5 12.9687 0.5 13.3186V39.0854C0.5 39.436 0.737136 39.6906 1.06396 39.6906H1.18587C1.42746 39.6906 1.70954 39.5321 1.70954 39.0854V13.3186C1.70954 12.8729 1.42737 12.7148 1.18587 12.7148Z" fill="black"/>
<path d="M29.2728 12.7148H29.1508C28.9093 12.7148 28.6272 12.8729 28.6272 13.3186V37.6382L10.3236 13.2728C10.072 12.9379 9.83396 12.7148 9.48968 12.7148H9.28681C8.87614 12.7148 8.6001 13.0064 8.6001 13.4404V39.0853C8.6001 39.532 8.88226 39.6905 9.12376 39.6905H9.24558C9.51837 39.6905 9.80973 39.5315 9.80973 39.0853V14.561L28.3096 39.1626C28.5153 39.4914 28.672 39.6906 29.0694 39.6906H29.1913C29.5589 39.6906 29.7965 39.4375 29.7965 39.0457V13.3186C29.7964 12.7932 29.4683 12.7148 29.2728 12.7148Z" fill="black"/>
<path d="M52.7202 12.7546H37.1713C36.589 12.7546 36.2812 13.0623 36.2812 13.6444V39.0852C36.2812 39.4358 36.5186 39.6904 36.8454 39.6904H36.9672C37.2088 39.6904 37.4909 39.5319 37.4909 39.0852V27.2755H48.4467C48.893 27.2755 49.0513 26.993 49.0513 26.7512V26.7114C49.0513 26.3846 48.7971 26.1473 48.4467 26.1473H37.491V13.8826H52.7202C53.1669 13.8826 53.3254 13.6009 53.3254 13.3596V13.2788C53.3253 13.0369 53.1668 12.7546 52.7202 12.7546Z" fill="black"/>
<path d="M63.1237 27.9262H65.2582C68.3103 27.9262 70.689 27.253 72.3284 25.9256C73.9534 24.6095 74.7774 22.7238 74.7774 20.3206C74.7774 15.4416 71.3388 12.7547 65.0952 12.7547H58.2159C57.8102 12.7547 57.3267 12.9091 57.3267 13.6446V39.0854C57.3267 39.436 57.5638 39.6906 57.8906 39.6906H58.0125C58.2538 39.6906 58.5355 39.5321 58.5355 39.0854V27.9262H61.4848L73.7716 39.3232C74.0171 39.5704 74.2414 39.6906 74.4572 39.6906C74.7474 39.6906 74.9655 39.4817 75.0453 39.2878C75.114 39.1209 75.0895 38.9564 74.9724 38.8404L63.1237 27.9262ZM58.5355 13.8826H65.0952C70.6115 13.8826 73.5274 16.1089 73.5274 20.3205C73.5274 22.3782 72.8411 23.9832 71.4875 25.091C70.07 26.251 67.9605 26.8392 65.2171 26.8392H58.5355V13.8826H58.5355Z" fill="black"/>
<path d="M89.4536 13.1759C89.3178 12.8334 89.0674 12.6737 88.6654 12.6737C88.2967 12.6737 88.0519 12.8378 87.9181 13.1726L77.2217 39.1789L77.2381 39.2614C77.2872 39.5106 77.5488 39.7058 77.8332 39.7058C77.9795 39.7058 78.3419 39.647 78.5431 39.111L82.5024 29.5137H94.8682L98.792 39.1226C99.0313 39.6353 99.3973 39.6907 99.5435 39.6907C99.8313 39.6907 100.085 39.5062 100.133 39.2615L100.15 39.1789L89.4536 13.1759ZM82.934 28.3856L88.6654 14.3815L94.3952 28.3856H82.934Z" fill="black"/>
<path d="M126.778 12.5277H126.657C126.384 12.5277 126.092 12.6867 126.092 13.1329V30.9623C126.092 33.5542 125.582 35.5035 124.577 36.7559C123.569 38.0106 122.066 38.6206 119.981 38.6206C116.942 38.6206 114.548 37.1023 113.732 34.6584L113.688 34.5251L113.554 34.4814C113.255 34.3836 112.823 34.6826 112.823 35.1139C112.823 35.932 114.687 39.7486 119.981 39.7486C124.839 39.7486 127.302 36.8057 127.302 31.002V13.1329C127.302 12.6862 127.02 12.5277 126.778 12.5277Z" fill="black"/>
<path d="M218.197 26.937H208.631C208.251 26.937 207.986 27.1526 207.986 27.4612V27.5011C207.986 27.8394 208.245 28.0664 208.631 28.0664H217.918V29.0859C217.838 34.6107 213.573 38.6206 207.776 38.6206C201.062 38.6206 196.373 33.4622 196.373 26.0767C196.373 18.7382 201.22 13.412 207.898 13.412C213.239 13.412 216.071 16.3764 216.872 18.915L216.908 19.0272L217.013 19.0802C217.065 19.1064 217.125 19.1196 217.191 19.1196C217.454 19.1196 217.824 18.9038 217.824 18.424C217.824 18.0671 217.261 16.5646 215.993 15.2955C214.619 13.9217 212.099 12.2838 207.898 12.2838C204.256 12.2838 200.978 13.6915 198.67 16.2475C196.408 18.751 195.163 22.2416 195.163 26.0766C195.163 29.9305 196.363 33.3994 198.541 35.8438C200.818 38.3983 203.997 39.7485 207.735 39.7485C212.479 39.7485 216.3 37.3907 217.918 33.6096V38.4518C217.918 38.8192 217.918 39.5034 218.522 39.5034C218.835 39.5034 219.046 39.3587 219.046 39.1433V27.827C219.046 27.253 218.745 26.937 218.197 26.937Z" fill="black"/>
<path d="M233.803 12.9884C233.667 12.6461 233.416 12.4867 233.015 12.4867C232.646 12.4867 232.401 12.6511 232.269 12.9858L221.603 38.9153L221.571 38.9939L221.588 39.0771C221.638 39.3252 221.9 39.5196 222.183 39.5196C222.33 39.5196 222.692 39.4606 222.893 38.9242L226.852 29.3281H239.218L243.142 38.9357C243.381 39.4486 243.747 39.504 243.894 39.504C244.18 39.504 244.434 39.3205 244.483 39.0771L244.5 38.9939L233.803 12.9884ZM227.285 28.2L233.015 14.1959L238.746 28.2H227.285Z" fill="black"/>
<path d="M154.04 49.8433C151.577 50.6364 149.155 50.963 146.774 50.8232C144.415 50.6416 142.202 50.047 140.135 49.0395C138.089 47.9903 136.315 46.5923 134.811 44.8456C133.298 43.0673 132.154 40.978 131.382 38.5778C130.609 36.1776 130.323 33.8296 130.525 31.5338C130.717 29.2064 131.343 27.0357 132.402 25.0215C133.483 22.9656 134.933 21.1915 136.753 19.6992C138.595 18.1652 140.747 17.0017 143.211 16.2086C145.674 15.4154 148.085 15.1097 150.444 15.2913C152.825 15.4311 155.033 16.0099 157.068 17.0276C159.104 18.0452 160.878 19.4432 162.392 21.2215C163.927 22.958 165.086 25.0422 165.869 27.474C166.652 29.9058 166.932 32.2905 166.708 34.628C166.507 36.9238 165.876 39.0788 164.816 41.093C163.757 43.1071 162.307 44.8812 160.465 46.4152C158.645 47.9075 156.503 49.0501 154.04 49.8433ZM153.323 47.6167C155.439 46.9355 157.28 45.9418 158.847 44.6359C160.413 43.3299 161.646 41.8001 162.545 40.0466C163.444 38.2931 163.973 36.4151 164.13 34.4127C164.318 32.4001 164.077 30.3515 163.406 28.2671C162.724 26.1511 161.725 24.3467 160.408 22.8537C159.112 21.319 157.587 20.1019 155.834 19.2026C154.08 18.3032 152.187 17.7801 150.153 17.6333C148.119 17.4865 146.044 17.7538 143.928 18.4351C141.812 19.1164 139.97 20.11 138.404 21.416C136.838 22.7219 135.589 24.2568 134.658 26.0204C133.759 27.774 133.215 29.657 133.026 31.6696C132.859 33.6405 133.116 35.684 133.798 37.7999C134.469 39.8843 135.452 41.6939 136.748 43.2286C138.075 44.7532 139.616 45.9651 141.369 46.8645C143.154 47.7537 145.064 48.2717 147.098 48.4185C149.132 48.5653 151.207 48.298 153.323 47.6167Z" fill="url(#paint0_linear_477_2334)"/>
<path d="M179.582 41.6358C176.965 42.4785 174.392 42.8255 171.863 42.6769C169.356 42.484 167.005 41.8523 164.809 40.7818C162.635 39.667 160.749 38.1816 159.152 36.3257C157.544 34.4363 156.329 32.2165 155.508 29.6662C154.687 27.116 154.384 24.6213 154.598 22.182C154.802 19.7092 155.467 17.4027 156.592 15.2626C157.741 13.0782 159.282 11.1932 161.215 9.60774C163.172 7.97788 165.459 6.74159 168.076 5.89889C170.694 5.05619 173.256 4.73132 175.762 4.92427C178.291 5.07286 180.637 5.6878 182.8 6.76909C184.963 7.85038 186.848 9.33573 188.456 11.2252C190.087 13.0702 191.319 15.2846 192.151 17.8684C192.983 20.4522 193.28 22.9859 193.043 25.4696C192.828 27.9088 192.158 30.1985 191.032 32.3386C189.907 34.4786 188.366 36.3636 186.409 37.9935C184.475 39.579 182.2 40.7931 179.582 41.6358ZM178.821 39.2701C181.069 38.5462 183.025 37.4905 184.689 36.1029C186.354 34.7153 187.663 33.09 188.619 31.2269C189.575 29.3638 190.136 27.3684 190.303 25.2408C190.503 23.1024 190.247 20.9258 189.533 18.7111C188.81 16.4629 187.748 14.5456 186.348 12.9594C184.972 11.3287 183.352 10.0356 181.488 9.08005C179.625 8.12447 177.613 7.5687 175.452 7.41273C173.291 7.25677 171.086 7.54072 168.838 8.26457C166.59 8.98843 164.634 10.0442 162.969 11.4318C161.305 12.8194 159.978 14.4501 158.989 16.324C158.034 18.1871 157.456 20.1879 157.255 22.3263C157.078 24.4204 157.351 26.5915 158.075 28.8397C158.788 31.0544 159.833 32.9771 161.21 34.6077C162.62 36.2276 164.257 37.5153 166.12 38.4708C168.017 39.4156 170.045 39.966 172.207 40.1219C174.368 40.2779 176.573 39.994 178.821 39.2701Z" fill="url(#paint1_linear_477_2334)"/>
<defs>
<linearGradient id="paint0_linear_477_2334" x1="155.846" y1="9.83654" x2="167.352" y2="45.5734" gradientUnits="userSpaceOnUse">
<stop stop-color="#D40946"/>
<stop offset="1" stop-color="#F39200"/>
</linearGradient>
<linearGradient id="paint1_linear_477_2334" x1="155.846" y1="9.83654" x2="167.352" y2="45.5734" gradientUnits="userSpaceOnUse">
<stop stop-color="#D40946"/>
<stop offset="1" stop-color="#F39200"/>
</linearGradient>
</defs>
</svg>
