<svg width="37" height="38" viewBox="0 0 37 38" fill="none" xmlns="http://www.w3.org/2000/svg">
<g clip-path="url(#clip0_512_2437)">
<path d="M37 19C37 13.9742 36.9769 13.3467 36.889 11.3734C36.7965 9.40312 36.4866 8.06187 36.0287 6.8825C35.557 5.66612 34.9234 4.63321 33.8951 3.60492C32.8668 2.57662 31.8354 1.94146 30.6175 1.47125C29.4381 1.01337 28.0969 0.701959 26.1266 0.611001C24.1533 0.5185 23.5258 0.5 18.5 0.5C13.4742 0.5 12.8467 0.523125 10.8734 0.611C8.90467 0.7035 7.56187 1.01337 6.3825 1.47125C5.14785 1.93574 4.02934 2.66388 3.10492 3.60492C2.16322 4.5288 1.43498 5.64747 0.971249 6.8825C0.514916 8.06341 0.20196 9.40466 0.111001 11.3734C0.0185011 13.3467 2.19688e-07 13.9742 0 19C-2.19685e-07 24.0258 0.0231256 24.6533 0.111001 26.6266C0.2035 28.5953 0.514915 29.9381 0.971248 31.1175C1.43632 32.3519 2.16438 33.4702 3.10492 34.3951C4.02855 35.3371 5.14729 36.0654 6.3825 36.5287C7.56187 36.9851 8.90467 37.298 10.8734 37.389C12.8467 37.4815 13.4742 37.5 18.5 37.5C23.5258 37.5 24.1533 37.4769 26.1266 37.389C28.0953 37.2965 29.4397 36.9851 30.6175 36.5288C31.852 36.064 32.9705 35.3359 33.8951 34.3951C34.8376 33.4719 35.566 32.353 36.0287 31.1175C36.4866 29.9381 36.798 28.5953 36.889 26.6266C36.9815 24.6533 37 24.0258 37 19ZM33.67 19C33.67 23.938 33.6453 24.5269 33.5605 26.4771C33.4757 28.2808 33.1767 29.2598 32.9207 29.9104C32.5862 30.7768 32.1854 31.3904 31.5394 32.041C30.8919 32.6869 30.2768 33.0877 29.4104 33.4223C28.7598 33.6751 27.7808 33.9773 25.9771 34.059C24.0253 34.1469 23.4395 34.1669 18.5 34.1669C13.5605 34.1669 12.9731 34.1438 11.0229 34.0528C9.21917 33.9588 8.24021 33.6582 7.58962 33.4038C6.78679 33.1028 6.05957 32.6298 5.45904 32.0178C4.84654 31.4199 4.3747 30.6931 4.07771 29.8903C3.82488 29.2428 3.52271 28.2485 3.441 26.4447C3.35313 24.4806 3.33308 23.9025 3.33308 18.9537C3.33308 14.0035 3.35621 13.4253 3.44717 11.4628C3.54121 9.6575 3.84183 8.66312 4.09621 8.01562C4.39345 7.21227 4.86705 6.48579 5.48217 5.88967C6.07611 5.27081 6.80388 4.79618 7.60967 4.50217C8.25717 4.24779 9.25154 3.94871 11.0553 3.85467C12.9978 3.78529 13.5975 3.76062 18.5231 3.76062C23.4503 3.76062 24.0515 3.78529 26.0172 3.85467C27.8209 3.94871 28.8138 4.24779 29.4613 4.50217C30.34 4.82592 30.9412 5.24062 31.5903 5.88967C32.2362 6.53562 32.6525 7.13842 32.9747 8.01562C33.2306 8.66312 33.5312 9.63592 33.6237 11.4397C33.6931 13.4053 33.7162 13.9834 33.7162 18.9306L33.67 19ZM27.9997 19C27.9997 17.7525 27.754 16.5172 27.2766 15.3646C26.7992 14.212 26.0995 13.1648 25.2173 12.2827C24.3352 11.4005 23.288 10.7008 22.1354 10.2234C20.9828 9.74597 19.7475 9.50025 18.5 9.50025C17.2525 9.50025 16.0172 9.74597 14.8646 10.2234C13.712 10.7008 12.6648 11.4005 11.7827 12.2827C10.9005 13.1648 10.2008 14.212 9.72338 15.3646C9.24597 16.5172 9.00025 17.7525 9.00025 19C9.00025 21.5195 10.0011 23.9358 11.7827 25.7173C13.5642 27.4989 15.9805 28.4997 18.5 28.4997C21.0195 28.4997 23.4358 27.4989 25.2173 25.7173C26.9989 23.9358 27.9997 21.5195 27.9997 19ZM12.3333 19C12.3333 15.5929 15.0929 12.8333 18.5 12.8333C21.9071 12.8333 24.6667 15.5929 24.6667 19C24.6667 22.4071 21.9071 25.1667 18.5 25.1667C15.0929 25.1667 12.3333 22.4071 12.3333 19ZM28.3744 31.0959C27.7999 31.0745 27.2561 30.8312 26.8573 30.4173C26.4584 30.0033 26.2356 29.4508 26.2356 28.8759C26.2356 28.3011 26.4584 27.7486 26.8573 27.3346C27.2561 26.9206 27.7999 26.6773 28.3744 26.6559C28.9632 26.6559 29.5278 26.8898 29.9442 27.3061C30.3605 27.7225 30.5944 28.2871 30.5944 28.8759C30.5944 29.4647 30.3605 30.0294 29.9442 30.4457C29.5278 30.862 28.9632 31.0959 28.3744 31.0959Z" fill="url(#paint0_linear_512_2437)"/>
</g>
<defs>
<linearGradient id="paint0_linear_512_2437" x1="37" y1="19" x2="6.13742e-07" y2="19" gradientUnits="userSpaceOnUse">
<stop stop-color="#D50946"/>
<stop offset="1" stop-color="#F39200"/>
</linearGradient>
<clipPath id="clip0_512_2437">
<rect width="37" height="38" fill="white"/>
</clipPath>
</defs>
</svg>
