<svg width="37" height="37" viewBox="0 0 37 37" fill="none" xmlns="http://www.w3.org/2000/svg">
<path d="M18.5 0C13.4742 0 12.8467 0.023125 10.8734 0.111C8.90312 0.2035 7.56187 0.513375 6.3825 0.97125C5.16612 1.443 4.13321 2.07662 3.10492 3.10492C2.07662 4.13321 1.44146 5.16458 0.97125 6.3825C0.513375 7.56187 0.201958 8.90312 0.111 10.8734C0.0185 12.8467 0 13.4742 0 18.5C0 23.5258 0.023125 24.1533 0.111 26.1266C0.2035 28.0953 0.513375 29.4381 0.97125 30.6175C1.43574 31.8521 2.16388 32.9707 3.10492 33.8951C4.0288 34.8368 5.14747 35.565 6.3825 36.0288C7.56342 36.4851 8.90467 36.798 10.8734 36.889C12.8467 36.9815 13.4742 37 18.5 37C23.5258 37 24.1533 36.9769 26.1266 36.889C28.0953 36.7965 29.4381 36.4851 30.6175 36.0288C31.8519 35.5637 32.9703 34.8356 33.8951 33.8951C34.8371 32.9715 35.5654 31.8527 36.0288 30.6175C36.4851 29.4381 36.798 28.0953 36.889 26.1266C36.9815 24.1533 37 23.5258 37 18.5C37 13.4742 36.9769 12.8467 36.889 10.8734C36.7965 8.90467 36.4851 7.56033 36.0288 6.3825C35.564 5.14796 34.8359 4.0295 33.8951 3.10492C32.9719 2.16241 31.853 1.43404 30.6175 0.97125C29.4381 0.513375 28.0953 0.201958 26.1266 0.111C24.1533 0.0185 23.5258 0 18.5 0ZM18.5 3.33C23.438 3.33 24.0269 3.35467 25.9771 3.43946C27.7808 3.52425 28.7598 3.82333 29.4104 4.07925C30.2768 4.41379 30.8904 4.81462 31.541 5.46058C32.1869 6.10808 32.5877 6.72321 32.9223 7.58962C33.1751 8.24021 33.4773 9.21917 33.559 11.0229C33.6469 12.9747 33.6669 13.5605 33.6669 18.5C33.6669 23.4395 33.6438 24.0269 33.5528 25.9771C33.4588 27.7808 33.1582 28.7598 32.9038 29.4104C32.6028 30.2132 32.1298 30.9404 31.5178 31.541C30.9199 32.1535 30.1932 32.6253 29.3903 32.9223C28.7428 33.1751 27.7485 33.4773 25.9447 33.559C23.9806 33.6469 23.4025 33.6669 18.4537 33.6669C13.5035 33.6669 12.9253 33.6438 10.9628 33.5528C9.1575 33.4588 8.16312 33.1582 7.51562 32.9038C6.71227 32.6066 5.98579 32.1329 5.38967 31.5178C4.77081 30.9239 4.29618 30.1961 4.00217 29.3903C3.74779 28.7428 3.44871 27.7485 3.35467 25.9447C3.28529 24.0022 3.26062 23.4025 3.26062 18.4769C3.26062 13.5497 3.28529 12.9485 3.35467 10.9828C3.44871 9.17908 3.74779 8.18625 4.00217 7.53875C4.32592 6.66 4.74062 6.05875 5.38967 5.40971C6.03562 4.76375 6.63842 4.3475 7.51562 4.02529C8.16312 3.76938 9.13592 3.46875 10.9397 3.37625C12.9053 3.30688 13.4834 3.28375 18.4306 3.28375L18.5 3.33V3.33ZM18.5 9.00025C17.2525 9.00025 16.0172 9.24597 14.8646 9.72338C13.712 10.2008 12.6648 10.9005 11.7827 11.7827C10.9005 12.6648 10.2008 13.712 9.72337 14.8646C9.24597 16.0172 9.00025 17.2525 9.00025 18.5C9.00025 19.7475 9.24597 20.9828 9.72337 22.1354C10.2008 23.288 10.9005 24.3352 11.7827 25.2173C12.6648 26.0995 13.712 26.7992 14.8646 27.2766C16.0172 27.754 17.2525 27.9998 18.5 27.9998C21.0195 27.9998 23.4358 26.9989 25.2173 25.2173C26.9989 23.4358 27.9998 21.0195 27.9998 18.5C27.9998 15.9805 26.9989 13.5642 25.2173 11.7827C23.4358 10.0011 21.0195 9.00025 18.5 9.00025V9.00025ZM18.5 24.6667C15.0929 24.6667 12.3333 21.9071 12.3333 18.5C12.3333 15.0929 15.0929 12.3333 18.5 12.3333C21.9071 12.3333 24.6667 15.0929 24.6667 18.5C24.6667 21.9071 21.9071 24.6667 18.5 24.6667ZM30.5959 8.62562C30.5745 9.20009 30.3312 9.74389 29.9173 10.1427C29.5033 10.5416 28.9508 10.7644 28.3759 10.7644C27.8011 10.7644 27.2486 10.5416 26.8346 10.1427C26.4206 9.74389 26.1773 9.20009 26.1559 8.62562C26.1559 8.03684 26.3898 7.47218 26.8061 7.05585C27.2225 6.63952 27.7871 6.40563 28.3759 6.40563C28.9647 6.40563 29.5294 6.63952 29.9457 7.05585C30.362 7.47218 30.5959 8.03684 30.5959 8.62562V8.62562Z" fill="url(#paint0_linear_487_2429)"/>
<defs>
<linearGradient id="paint0_linear_487_2429" x1="18.5" y1="0" x2="18.5" y2="37" gradientUnits="userSpaceOnUse">
<stop stop-color="#D50946"/>
<stop offset="1" stop-color="#F39200"/>
</linearGradient>
</defs>
</svg>
