<svg width="196" height="45" viewBox="0 0 196 45" fill="none" xmlns="http://www.w3.org/2000/svg">
<path d="M0.550947 10.2136H0.45302C0.190486 10.2136 0 10.4176 0 10.6986V31.3966C0 31.6782 0.190486 31.8827 0.45302 31.8827H0.550947C0.745012 31.8827 0.971598 31.7554 0.971598 31.3966V10.6986C0.971598 10.3406 0.744938 10.2136 0.550947 10.2136Z" fill="white"/>
<path d="M23.1127 10.2136H23.0148C22.8208 10.2136 22.5942 10.3406 22.5942 10.6986V30.2341L7.89133 10.6619C7.6892 10.3928 7.49797 10.2136 7.22142 10.2136H7.05845C6.72857 10.2136 6.50684 10.4479 6.50684 10.7965V31.3965C6.50684 31.7553 6.73349 31.8826 6.92748 31.8826H7.02534C7.24446 31.8826 7.47851 31.7549 7.47851 31.3965V11.6966L22.3391 31.4586C22.5043 31.7227 22.6302 31.8827 22.9494 31.8827H23.0473C23.3426 31.8827 23.5335 31.6794 23.5335 31.3647V10.6986C23.5334 10.2766 23.2698 10.2136 23.1127 10.2136Z" fill="white"/>
<path d="M41.9468 10.2454H29.4567C28.9889 10.2454 28.7417 10.4925 28.7417 10.9602V31.3962C28.7417 31.6779 28.9323 31.8824 29.1949 31.8824H29.2927C29.4868 31.8824 29.7134 31.755 29.7134 31.3962V21.9097H38.514C38.8724 21.9097 38.9996 21.6828 38.9996 21.4886V21.4566C38.9996 21.194 38.7954 21.0035 38.514 21.0035H29.7134V11.1515H41.9468C42.3056 11.1515 42.4329 10.9252 42.4329 10.7313V10.6665C42.4328 10.4722 42.3055 10.2454 41.9468 10.2454Z" fill="white"/>
<path d="M50.3041 22.4325H52.0187C54.4704 22.4325 56.3811 21.8918 57.698 20.8255C59.0034 19.7683 59.6652 18.2535 59.6652 16.3231C59.6652 12.404 56.9031 10.2456 51.8878 10.2456H46.3617C46.0359 10.2456 45.6475 10.3696 45.6475 10.9604V31.3965C45.6475 31.6781 45.8379 31.8826 46.1005 31.8826H46.1984C46.3922 31.8826 46.6185 31.7553 46.6185 31.3965V22.4325H48.9876L58.8574 31.5876C59.0546 31.7861 59.2347 31.8826 59.4081 31.8826C59.6412 31.8826 59.8164 31.7149 59.8805 31.5591C59.9357 31.425 59.916 31.2929 59.8219 31.1997L50.3041 22.4325ZM46.6185 11.1516H51.8878C56.3189 11.1516 58.6611 12.9399 58.6611 16.323C58.6611 17.9759 58.1099 19.2652 57.0225 20.1551C55.884 21.0869 54.1894 21.5594 51.9857 21.5594H46.6185V11.1516H46.6185Z" fill="white"/>
<path d="M71.455 10.5838C71.346 10.3087 71.1448 10.1804 70.8219 10.1804C70.5257 10.1804 70.3291 10.3122 70.2216 10.5812L61.6294 31.4715L61.6426 31.5377C61.6821 31.7379 61.8921 31.8947 62.1206 31.8947C62.2381 31.8947 62.5292 31.8475 62.6909 31.4169L65.8712 23.7076H75.8045L78.9564 31.4262C79.1486 31.8381 79.4426 31.8826 79.56 31.8826C79.7913 31.8826 79.9948 31.7344 80.0337 31.5378L80.0469 31.4715L71.455 10.5838ZM66.218 22.8014L70.8219 11.5522L75.4246 22.8014H66.218Z" fill="white"/>
<path d="M101.436 10.063H101.338C101.119 10.063 100.885 10.1907 100.885 10.5491V24.8711C100.885 26.9531 100.476 28.5189 99.6678 29.5249C98.8583 30.5328 97.6506 31.0228 95.9758 31.0228C93.5347 31.0228 91.6116 29.8032 90.9568 27.8401L90.921 27.733L90.8137 27.6979C90.5729 27.6193 90.2261 27.8595 90.2261 28.206C90.2261 28.8631 91.7239 31.929 95.9758 31.929C99.8782 31.929 101.857 29.565 101.857 24.903V10.5491C101.857 10.1903 101.63 10.063 101.436 10.063Z" fill="white"/>
<path d="M174.871 21.6378H167.187C166.882 21.6378 166.669 21.811 166.669 22.0589V22.0909C166.669 22.3627 166.877 22.545 167.187 22.545H174.647V23.3639C174.583 27.8019 171.157 31.023 166.501 31.023C161.107 31.023 157.34 26.8793 157.34 20.9467C157.34 15.0518 161.234 10.7734 166.599 10.7734C170.889 10.7734 173.163 13.1547 173.807 15.1939L173.836 15.284L173.92 15.3266C173.962 15.3476 174.01 15.3582 174.063 15.3582C174.274 15.3582 174.572 15.1849 174.572 14.7995C174.572 14.5128 174.12 13.3059 173.101 12.2864C171.997 11.1828 169.973 9.86719 166.599 9.86719C163.673 9.86719 161.04 10.9979 159.185 13.0512C157.369 15.0621 156.369 17.8661 156.369 20.9466C156.369 24.0424 157.332 26.8289 159.082 28.7924C160.911 30.8444 163.465 31.929 166.468 31.929C170.278 31.929 173.348 30.035 174.647 26.9977V30.8874C174.647 31.1825 174.647 31.7321 175.133 31.7321C175.384 31.7321 175.553 31.6158 175.553 31.4429V22.3527C175.553 21.8916 175.311 21.6378 174.871 21.6378Z" fill="white"/>
<path d="M187.408 10.4335C187.298 10.1586 187.097 10.0305 186.774 10.0305C186.478 10.0305 186.282 10.1626 186.175 10.4314L177.607 31.2601L177.582 31.3232L177.595 31.39C177.635 31.5893 177.846 31.7455 178.074 31.7455C178.191 31.7455 178.483 31.6981 178.644 31.2672L181.824 23.5589H191.757L194.909 31.2764C195.101 31.6885 195.395 31.7329 195.513 31.7329C195.743 31.7329 195.947 31.5855 195.986 31.39L196 31.3232L187.408 10.4335ZM182.171 22.6527L186.774 11.4035L191.378 22.6527H182.171Z" fill="white"/>
<path d="M123.336 40.038C121.357 40.6751 119.412 40.9375 117.5 40.8252C115.605 40.6793 113.827 40.2017 112.166 39.3924C110.523 38.5495 109.098 37.4266 107.89 36.0235C106.674 34.595 105.756 32.9168 105.135 30.9887C104.514 29.0607 104.285 27.1746 104.447 25.3304C104.601 23.4609 105.104 21.7172 105.955 20.0992C106.823 18.4477 107.988 17.0227 109.45 15.824C110.929 14.5918 112.658 13.6571 114.637 13.02C116.616 12.3829 118.553 12.1373 120.447 12.2831C122.36 12.3955 124.133 12.8604 125.768 13.6779C127.404 14.4954 128.829 15.6183 130.045 17.0468C131.278 18.4417 132.209 20.1159 132.838 22.0693C133.467 24.0227 133.692 25.9383 133.512 27.8159C133.35 29.6601 132.843 31.3912 131.992 33.0091C131.141 34.627 129.976 36.0521 128.497 37.2844C127.035 38.483 125.315 39.4009 123.336 40.038ZM122.76 38.2495C124.46 37.7023 125.939 36.9041 127.197 35.855C128.455 34.806 129.445 33.5772 130.168 32.1686C130.89 30.76 131.315 29.2515 131.441 27.643C131.592 26.0263 131.398 24.3807 130.859 22.7064C130.312 21.0067 129.509 19.5572 128.451 18.3579C127.41 17.1251 126.186 16.1475 124.777 15.425C123.368 14.7026 121.847 14.2824 120.213 14.1645C118.579 14.0466 116.913 14.2612 115.213 14.8085C113.513 15.3558 112.034 16.1539 110.776 17.203C109.518 18.252 108.515 19.4849 107.767 20.9017C107.045 22.3102 106.608 23.8229 106.456 25.4396C106.322 27.0227 106.528 28.6642 107.076 30.3639C107.615 32.0382 108.405 33.4918 109.446 34.7246C110.512 35.9493 111.749 36.9228 113.158 37.6453C114.592 38.3595 116.126 38.7756 117.76 38.8935C119.394 39.0114 121.06 38.7968 122.76 38.2495Z" fill="url(#paint0_linear_477_2246)"/>
<path d="M143.854 33.4451C141.751 34.1221 139.684 34.4008 137.652 34.2815C135.639 34.1265 133.75 33.619 131.986 32.7591C130.24 31.8636 128.725 30.6705 127.442 29.1797C126.15 27.662 125.175 25.8788 124.515 23.8303C123.855 21.7817 123.612 19.7777 123.784 17.8183C123.948 15.8319 124.482 13.9792 125.386 12.2602C126.309 10.5054 127.546 8.9913 129.1 7.71769C130.671 6.40846 132.509 5.41538 134.611 4.73846C136.713 4.06153 138.771 3.80057 140.785 3.95556C142.816 4.07492 144.701 4.56889 146.438 5.43747C148.175 6.30604 149.69 7.49919 150.982 9.01693C152.292 10.499 153.281 12.2778 153.95 14.3533C154.618 16.4288 154.857 18.4641 154.666 20.4592C154.494 22.4186 153.955 24.2578 153.051 25.9769C152.147 27.696 150.909 29.2101 149.337 30.5193C147.784 31.793 145.956 32.7682 143.854 33.4451ZM143.242 31.5448C145.048 30.9634 146.619 30.1153 147.956 29.0007C149.293 27.8861 150.345 26.5805 151.113 25.0839C151.88 23.5873 152.331 21.9844 152.465 20.2754C152.626 18.5576 152.42 16.8093 151.847 15.0303C151.266 13.2243 150.413 11.6842 149.289 10.41C148.183 9.10013 146.881 8.06141 145.385 7.29381C143.888 6.52621 142.272 6.07977 140.536 5.95449C138.8 5.82921 137.029 6.0573 135.223 6.63876C133.417 7.22022 131.845 8.06826 130.509 9.1829C129.172 10.2975 128.106 11.6075 127.312 13.1127C126.544 14.6093 126.08 16.2165 125.919 17.9343C125.776 19.6164 125.996 21.3604 126.577 23.1664C127.15 24.9454 127.989 26.4898 129.095 27.7996C130.228 29.1008 131.543 30.1352 133.039 30.9028C134.563 31.6617 136.193 32.1038 137.929 32.2291C139.665 32.3544 141.436 32.1263 143.242 31.5448Z" fill="url(#paint1_linear_477_2246)"/>
<defs>
<linearGradient id="paint0_linear_477_2246" x1="124.787" y1="7.90149" x2="134.03" y2="36.6082" gradientUnits="userSpaceOnUse">
<stop stop-color="#D40946"/>
<stop offset="1" stop-color="#F39200"/>
</linearGradient>
<linearGradient id="paint1_linear_477_2246" x1="124.787" y1="7.90149" x2="134.03" y2="36.6082" gradientUnits="userSpaceOnUse">
<stop stop-color="#D40946"/>
<stop offset="1" stop-color="#F39200"/>
</linearGradient>
</defs>
</svg>
